<mxfile host="app.diagrams.net" agent="Mozilla/5.0 (Windows NT 10.0; Win64; x64) AppleWebKit/537.36 (KHTML, like Gecko) Chrome/141.0.0.0 Safari/537.36 Edg/141.0.0.0" version="28.2.8">
  <diagram id="C5RBs43oDa-KdzZeNtuy" name="Page-1">
    <mxGraphModel dx="1273" dy="698" grid="1" gridSize="10" guides="1" tooltips="1" connect="1" arrows="1" fold="1" page="1" pageScale="1" pageWidth="827" pageHeight="1169" math="0" shadow="0">
      <root>
        <mxCell id="WIyWlLk6GJQsqaUBKTNV-0" />
        <mxCell id="WIyWlLk6GJQsqaUBKTNV-1" parent="WIyWlLk6GJQsqaUBKTNV-0" />
        <mxCell id="1SmDlZv5HPE9lzq-8RrA-0" value="&lt;font style=&quot;font-size: 14px;&quot;&gt;&amp;nbsp;Supuesto 19:&lt;/font&gt;&lt;div&gt;&amp;nbsp;&lt;font style=&quot;font-size: 14px;&quot;&gt;Perfil Ãºnico para Cajero Virtual,&lt;/font&gt;&lt;/div&gt;&lt;div&gt;&lt;font style=&quot;font-size: 14px;&quot;&gt;Acceso a registros de pedidos y productos.&lt;/font&gt;&lt;span style=&quot;font-size: 14px;&quot;&gt;&lt;br&gt;&lt;/span&gt;&lt;div&gt;&lt;span style=&quot;background-color: transparent; text-wrap-mode: nowrap; color: rgba(0, 0, 0, 0); font-family: monospace; font-size: 0px; text-align: start;&quot;&gt;%3CmxGraphModel%3E%3Croot%3E%3CmxCell%20id%3D%220%22%2F%3E%3CmxCell%20id%3D%221%22%20parent%3D%220%22%2F%3E%3CmxCell%20id%3D%222%22%20value%3D%22%26lt%3Bfont%20style%3D%26quot%3Bfont-size%3A%2014px%3B%26quot%3B%26gt%3B%26amp%3Bnbsp%3BSupuesto%2016%3A%26lt%3B%2Ffont%26gt%3B%26lt%3Bdiv%26gt%3B%26amp%3Bnbsp%3B%26lt%3Bfont%20style%3D%26quot%3Bfont-size%3A%2014px%3B%26quot%3B%26gt%3BEl%20encargado%20adquiere%20una%20lista%20de%26amp%3Bnbsp%3B%26lt%3B%2Ffont%26gt%3B%26lt%3B%2Fdiv%26gt%3B%26lt%3Bdiv%26gt%3B%26lt%3Bfont%20style%3D%26quot%3Bfont-size%3A%2014px%3B%26quot%3B%26gt%3Btodos%20los%20pedidos%20a%20despachar%2C%26amp%3Bnbsp%3B%26lt%3B%2Ffont%26gt%3B%26lt%3B%2Fdiv%26gt%3B%26lt%3Bdiv%26gt%3B%26lt%3Bfont%20style%3D%26quot%3Bfont-size%3A%2014px%3B%26quot%3B%26gt%3Bel%20cual%20se%26lt%3Bbr%26gt%3B%20actualizar%C3%A1%20a%20medida%20que%20entregue%20y%20lleguen%20m%C3%A1s%20pedidos.%26lt%3B%2Ffont%26gt%3B%26lt%3B%2Fdiv%26gt%3B%22%20style%3D%22html%3D1%3BwhiteSpace%3Dwrap%3BfillColor%3D%23dae8fc%3BstrokeColor%3D%236c8ebf%3B%22%20vertex%3D%221%22%20parent%3D%221%22%3E%3CmxGeometry%20x%3D%22405%22%20y%3D%22540%22%20width%3D%22290%22%20height%3D%22115%22%20as%3D%22geometry%22%2F%3E%3C%2FmxCell%3E%3C%2Froot%3E%3C%2FmxGraphModel%3E&lt;/span&gt;&lt;span style=&quot;background-color: transparent; text-wrap-mode: nowrap; color: rgba(0, 0, 0, 0); font-family: monospace; font-size: 0px; text-align: start;&quot;&gt;%3CmxGraphModel%3E%3Croot%3E%3CmxCell%20id%3D%220%22%2F%3E%3CmxCell%20id%3D%221%22%20parent%3D%220%22%2F%3E%3CmxCell%20id%3D%222%22%20value%3D%22%26lt%3Bfont%20style%3D%26quot%3Bfont-size%3A%2014px%3B%26quot%3B%26gt%3B%26amp%3Bnbsp%3BSupuesto%2016%3A%26lt%3B%2Ffont%26gt%3B%26lt%3Bdiv%26gt%3B%26amp%3Bnbsp%3B%26lt%3Bfont%20style%3D%26quot%3Bfont-size%3A%2014px%3B%26quot%3B%26gt%3BEl%20encargado%20adquiere%20una%20lista%20de%26amp%3Bnbsp%3B%26lt%3B%2Ffont%26gt%3B%26lt%3B%2Fdiv%26gt%3B%26lt%3Bdiv%26gt%3B%26lt%3Bfont%20style%3D%26quot%3Bfont-size%3A%2014px%3B%26quot%3B%26gt%3Btodos%20los%20pedidos%20a%20despachar%2C%26amp%3Bnbsp%3B%26lt%3B%2Ffont%26gt%3B%26lt%3B%2Fdiv%26gt%3B%26lt%3Bdiv%26gt%3B%26lt%3Bfont%20style%3D%26quot%3Bfont-size%3A%2014px%3B%26quot%3B%26gt%3Bel%20cual%20se%26lt%3Bbr%26gt%3B%20actualizar%C3%A1%20a%20medida%20que%20entregue%20y%20lleguen%20m%C3%A1s%20pedidos.%26lt%3B%2Ffont%26gt%3B%26lt%3B%2Fdiv%26gt%3B%22%20style%3D%22html%3D1%3BwhiteSpace%3Dwrap%3BfillColor%3D%23dae8fc%3BstrokeColor%3D%236c8ebf%3B%22%20vertex%3D%221%22%20parent%3D%221%22%3E%3CmxGeometry%20x%3D%22405%22%20y%3D%22540%22%20width%3D%22290%22%20height%3D%22115%22%20as%3D%22geometry%22%2F%3E%3C%2FmxCell%3E%3C%2Froot%3E%3C%2FmxGraphModel%3E&lt;/span&gt;&lt;span style=&quot;background-color: transparent; text-wrap-mode: nowrap; color: rgba(0, 0, 0, 0); font-family: monospace; font-size: 0px; text-align: start;&quot;&gt;%3CmxGraphModel%3E%3Croot%3E%3CmxCell%20id%3D%220%22%2F%3E%3CmxCell%20id%3D%221%22%20parent%3D%220%22%2F%3E%3CmxCell%20id%3D%222%22%20value%3D%22%26lt%3Bfont%20style%3D%26quot%3Bfont-size%3A%2014px%3B%26quot%3B%26gt%3B%26amp%3Bnbsp%3BSupuesto%2016%3A%26lt%3B%2Ffont%26gt%3B%26lt%3Bdiv%26gt%3B%26amp%3Bnbsp%3B%26lt%3Bfont%20style%3D%26quot%3Bfont-size%3A%2014px%3B%26quot%3B%26gt%3BEl%20encargado%20adquiere%20una%20lista%20de%26amp%3Bnbsp%3B%26lt%3B%2Ffont%26gt%3B%26lt%3B%2Fdiv%26gt%3B%26lt%3Bdiv%26gt%3B%26lt%3Bfont%20style%3D%26quot%3Bfont-size%3A%2014px%3B%26quot%3B%26gt%3Btodos%20los%20pedidos%20a%20despachar%2C%26amp%3Bnbsp%3B%26lt%3B%2Ffont%26gt%3B%26lt%3B%2Fdiv%26gt%3B%26lt%3Bdiv%26gt%3B%26lt%3Bfont%20style%3D%26quot%3Bfont-size%3A%2014px%3B%26quot%3B%26gt%3Bel%20cual%20se%26lt%3Bbr%26gt%3B%20actualizar%C3%A1%20a%20medida%20que%20entregue%20y%20lleguen%20m%C3%A1s%20pedidos.%26lt%3B%2Ffont%26gt%3B%26lt%3B%2Fdiv%26gt%3B%22%20style%3D%22html%3D1%3BwhiteSpace%3Dwrap%3BfillColor%3D%23dae8fc%3BstrokeColor%3D%236c8ebf%3B%22%20vertex%3D%221%22%20parent%3D%221%22%3E%3CmxGeometry%20x%3D%22405%22%20y%3D%22540%22%20width%3D%22290%22%20height%3D%22115%22%20as%3D%22geometry%22%2F%3E%3C%2FmxCell%3E%3C%2Froot%3E%3C%2FmxGraphModel%3E&lt;/span&gt;&lt;span style=&quot;background-color: transparent; text-wrap-mode: nowrap; color: rgba(0, 0, 0, 0); font-family: monospace; font-size: 0px; text-align: start;&quot;&gt;%3CmxGraphModel%3E%3Croot%3E%3CmxCell%20id%3D%220%22%2F%3E%3CmxCell%20id%3D%221%22%20parent%3D%220%22%2F%3E%3CmxCell%20id%3D%222%22%20value%3D%22%26lt%3Bfont%20style%3D%26quot%3Bfont-size%3A%2014px%3B%26quot%3B%26gt%3B%26amp%3Bnbsp%3BSupuesto%2016%3A%26lt%3B%2Ffont%26gt%3B%26lt%3Bdiv%26gt%3B%26amp%3Bnbsp%3B%26lt%3Bfont%20style%3D%26quot%3Bfont-size%3A%2014px%3B%26quot%3B%26gt%3BEl%20encargado%20adquiere%20una%20lista%20de%26amp%3Bnbsp%3B%26lt%3B%2Ffont%26gt%3B%26lt%3B%2Fdiv%26gt%3B%26lt%3Bdiv%26gt%3B%26lt%3Bfont%20style%3D%26quot%3Bfont-size%3A%2014px%3B%26quot%3B%26gt%3Btodos%20los%20pedidos%20a%20despachar%2C%26amp%3Bnbsp%3B%26lt%3B%2Ffont%26gt%3B%26lt%3B%2Fdiv%26gt%3B%26lt%3Bdiv%26gt%3B%26lt%3Bfont%20style%3D%26quot%3Bfont-size%3A%2014px%3B%26quot%3B%26gt%3Bel%20cual%20se%26lt%3Bbr%26gt%3B%20actualizar%C3%A1%20a%20medida%20que%20entregue%20y%20lleguen%20m%C3%A1s%20pedidos.%26lt%3B%2Ffont%26gt%3B%26lt%3B%2Fdiv%26gt%3B%22%20style%3D%22html%3D1%3BwhiteSpace%3Dwrap%3BfillColor%3D%23dae8fc%3BstrokeColor%3D%236c8ebf%3B%22%20vertex%3D%221%22%20parent%3D%221%22%3E%3CmxGeometry%20x%3D%22405%22%20y%3D%22540%22%20width%3D%22290%22%20height%3D%22115%22%20as%3D%22geometry%22%2F%3E%3C%2FmxCell%3E%3C%2Froot%3E%3C%2FmxGraphModel%3E&lt;/span&gt;&lt;span style=&quot;background-color: transparent; text-wrap-mode: nowrap; color: rgba(0, 0, 0, 0); font-family: monospace; font-size: 0px; text-align: start;&quot;&gt;%3CmxGraphModel%3E%3Croot%3E%3CmxCell%20id%3D%220%22%2F%3E%3CmxCell%20id%3D%221%22%20parent%3D%220%22%2F%3E%3CmxCell%20id%3D%222%22%20value%3D%22%26lt%3Bfont%20style%3D%26quot%3Bfont-size%3A%2014px%3B%26quot%3B%26gt%3B%26amp%3Bnbsp%3BSupuesto%2016%3A%26lt%3B%2Ffont%26gt%3B%26lt%3Bdiv%26gt%3B%26amp%3Bnbsp%3B%26lt%3Bfont%20style%3D%26quot%3Bfont-size%3A%2014px%3B%26quot%3B%26gt%3BEl%20encargado%20adquiere%20una%20lista%20de%26amp%3Bnbsp%3B%26lt%3B%2Ffont%26gt%3B%26lt%3B%2Fdiv%26gt%3B%26lt%3Bdiv%26gt%3B%26lt%3Bfont%20style%3D%26quot%3Bfont-size%3A%2014px%3B%26quot%3B%26gt%3Btodos%20los%20pedidos%20a%20despachar%2C%26amp%3Bnbsp%3B%26lt%3B%2Ffont%26gt%3B%26lt%3B%2Fdiv%26gt%3B%26lt%3Bdiv%26gt%3B%26lt%3Bfont%20style%3D%26quot%3Bfont-size%3A%2014px%3B%26quot%3B%26gt%3Bel%20cual%20se%26lt%3Bbr%26gt%3B%20actualizar%C3%A1%20a%20medida%20que%20entregue%20y%20lleguen%20m%C3%A1s%20pedidos.%26lt%3B%2Ffont%26gt%3B%26lt%3B%2Fdiv%26gt%3B%22%20style%3D%22html%3D1%3BwhiteSpace%3Dwrap%3BfillColor%3D%23dae8fc%3BstrokeColor%3D%236c8ebf%3B%22%20vertex%3D%221%22%20parent%3D%221%22%3E%3CmxGeometry%20x%3D%22405%22%20y%3D%22540%22%20width%3D%22290%22%20height%3D%22115%22%20as%3D%22geometry%22%2F%3E%3C%2FmxCell%3E%3C%2Froot%3E%3C%2FmxGraphModel%3E&lt;/span&gt;&lt;/div&gt;&lt;/div&gt;" style="html=1;whiteSpace=wrap;fillColor=#dae8fc;strokeColor=#6c8ebf;" parent="WIyWlLk6GJQsqaUBKTNV-1" vertex="1">
          <mxGeometry x="285" y="550" width="235" height="85" as="geometry" />
        </mxCell>
        <mxCell id="1SmDlZv5HPE9lzq-8RrA-8" value="ICRUD&amp;lt;E&amp;gt;" style="swimlane;fontStyle=0;childLayout=stackLayout;horizontal=1;startSize=26;fillColor=none;horizontalStack=0;resizeParent=1;resizeParentMax=0;resizeLast=0;collapsible=1;marginBottom=0;whiteSpace=wrap;html=1;" parent="WIyWlLk6GJQsqaUBKTNV-1" vertex="1">
          <mxGeometry x="65" y="80" width="220" height="130" as="geometry" />
        </mxCell>
        <mxCell id="1SmDlZv5HPE9lzq-8RrA-9" value="add(input): Response" style="label;fontStyle=0;strokeColor=none;fillColor=none;align=left;verticalAlign=top;overflow=hidden;spacingLeft=28;spacingRight=4;rotatable=0;points=[[0,0.5],[1,0.5]];portConstraint=eastwest;imageWidth=16;imageHeight=16;whiteSpace=wrap;html=1;image=img/clipart/Gear_128x128.png" parent="1SmDlZv5HPE9lzq-8RrA-8" vertex="1">
          <mxGeometry y="26" width="220" height="26" as="geometry" />
        </mxCell>
        <mxCell id="1SmDlZv5HPE9lzq-8RrA-10" value="update(key, input): Response" style="label;fontStyle=0;strokeColor=none;fillColor=none;align=left;verticalAlign=top;overflow=hidden;spacingLeft=28;spacingRight=4;rotatable=0;points=[[0,0.5],[1,0.5]];portConstraint=eastwest;imageWidth=16;imageHeight=16;whiteSpace=wrap;html=1;image=img/clipart/Gear_128x128.png" parent="1SmDlZv5HPE9lzq-8RrA-8" vertex="1">
          <mxGeometry y="52" width="220" height="26" as="geometry" />
        </mxCell>
        <mxCell id="1SmDlZv5HPE9lzq-8RrA-11" value="delete(key): Response" style="label;fontStyle=0;strokeColor=none;fillColor=none;align=left;verticalAlign=top;overflow=hidden;spacingLeft=28;spacingRight=4;rotatable=0;points=[[0,0.5],[1,0.5]];portConstraint=eastwest;imageWidth=16;imageHeight=16;whiteSpace=wrap;html=1;image=img/clipart/Gear_128x128.png" parent="1SmDlZv5HPE9lzq-8RrA-8" vertex="1">
          <mxGeometry y="78" width="220" height="26" as="geometry" />
        </mxCell>
        <mxCell id="1SmDlZv5HPE9lzq-8RrA-12" value="query(key): Response" style="label;fontStyle=0;strokeColor=none;fillColor=none;align=left;verticalAlign=top;overflow=hidden;spacingLeft=28;spacingRight=4;rotatable=0;points=[[0,0.5],[1,0.5]];portConstraint=eastwest;imageWidth=16;imageHeight=16;whiteSpace=wrap;html=1;image=img/clipart/Gear_128x128.png" parent="1SmDlZv5HPE9lzq-8RrA-8" vertex="1">
          <mxGeometry y="104" width="220" height="26" as="geometry" />
        </mxCell>
        <mxCell id="1SmDlZv5HPE9lzq-8RrA-13" value="Â«interfaceÂ»&lt;br&gt;&lt;b&gt;input&lt;/b&gt;" style="html=1;whiteSpace=wrap;" parent="WIyWlLk6GJQsqaUBKTNV-1" vertex="1">
          <mxGeometry x="35" y="260" width="110" height="50" as="geometry" />
        </mxCell>
        <mxCell id="1SmDlZv5HPE9lzq-8RrA-14" value="Use" style="endArrow=open;endSize=12;dashed=1;html=1;rounded=0;exitX=0.494;exitY=1.108;exitDx=0;exitDy=0;exitPerimeter=0;" parent="WIyWlLk6GJQsqaUBKTNV-1" source="1SmDlZv5HPE9lzq-8RrA-12" target="1SmDlZv5HPE9lzq-8RrA-13" edge="1">
          <mxGeometry width="160" relative="1" as="geometry">
            <mxPoint x="215" y="310" as="sourcePoint" />
            <mxPoint x="135" y="300" as="targetPoint" />
          </mxGeometry>
        </mxCell>
        <mxCell id="1SmDlZv5HPE9lzq-8RrA-15" value="Usuarioinput" style="swimlane;fontStyle=2;align=center;verticalAlign=top;childLayout=stackLayout;horizontal=1;startSize=26;horizontalStack=0;resizeParent=1;resizeLast=0;collapsible=1;marginBottom=0;rounded=0;shadow=0;strokeWidth=1;" parent="WIyWlLk6GJQsqaUBKTNV-1" vertex="1">
          <mxGeometry y="360" width="180" height="80" as="geometry">
            <mxRectangle x="230" y="140" width="160" height="26" as="alternateBounds" />
          </mxGeometry>
        </mxCell>
        <mxCell id="1SmDlZv5HPE9lzq-8RrA-16" value="+ email: str" style="text;strokeColor=none;fillColor=none;align=left;verticalAlign=top;spacingLeft=4;spacingRight=4;overflow=hidden;rotatable=0;points=[[0,0.5],[1,0.5]];portConstraint=eastwest;whiteSpace=wrap;html=1;" parent="1SmDlZv5HPE9lzq-8RrA-15" vertex="1">
          <mxGeometry y="26" width="180" height="26" as="geometry" />
        </mxCell>
        <mxCell id="1SmDlZv5HPE9lzq-8RrA-17" value="+ pass: str" style="text;strokeColor=none;fillColor=none;align=left;verticalAlign=top;spacingLeft=4;spacingRight=4;overflow=hidden;rotatable=0;points=[[0,0.5],[1,0.5]];portConstraint=eastwest;whiteSpace=wrap;html=1;" parent="1SmDlZv5HPE9lzq-8RrA-15" vertex="1">
          <mxGeometry y="52" width="180" height="26" as="geometry" />
        </mxCell>
        <mxCell id="1SmDlZv5HPE9lzq-8RrA-18" value="Extends" style="endArrow=block;endSize=16;endFill=0;html=1;rounded=0;exitX=0.5;exitY=0;exitDx=0;exitDy=0;entryX=0.5;entryY=1;entryDx=0;entryDy=0;" parent="WIyWlLk6GJQsqaUBKTNV-1" source="1SmDlZv5HPE9lzq-8RrA-15" target="1SmDlZv5HPE9lzq-8RrA-13" edge="1">
          <mxGeometry width="160" relative="1" as="geometry">
            <mxPoint x="265" y="310" as="sourcePoint" />
            <mxPoint x="425" y="310" as="targetPoint" />
          </mxGeometry>
        </mxCell>
        <mxCell id="1SmDlZv5HPE9lzq-8RrA-19" value="Response" style="swimlane;fontStyle=2;align=center;verticalAlign=top;childLayout=stackLayout;horizontal=1;startSize=26;horizontalStack=0;resizeParent=1;resizeLast=0;collapsible=1;marginBottom=0;rounded=0;shadow=0;strokeWidth=1;" parent="WIyWlLk6GJQsqaUBKTNV-1" vertex="1">
          <mxGeometry x="195" y="260" width="130" height="78" as="geometry">
            <mxRectangle x="230" y="140" width="160" height="26" as="alternateBounds" />
          </mxGeometry>
        </mxCell>
        <mxCell id="1SmDlZv5HPE9lzq-8RrA-20" value="+ status: HtttpCde" style="text;strokeColor=none;fillColor=none;align=left;verticalAlign=top;spacingLeft=4;spacingRight=4;overflow=hidden;rotatable=0;points=[[0,0.5],[1,0.5]];portConstraint=eastwest;whiteSpace=wrap;html=1;" parent="1SmDlZv5HPE9lzq-8RrA-19" vertex="1">
          <mxGeometry y="26" width="130" height="26" as="geometry" />
        </mxCell>
        <mxCell id="1SmDlZv5HPE9lzq-8RrA-21" value="+ body: Object" style="text;strokeColor=none;fillColor=none;align=left;verticalAlign=top;spacingLeft=4;spacingRight=4;overflow=hidden;rotatable=0;points=[[0,0.5],[1,0.5]];portConstraint=eastwest;whiteSpace=wrap;html=1;" parent="1SmDlZv5HPE9lzq-8RrA-19" vertex="1">
          <mxGeometry y="52" width="130" height="26" as="geometry" />
        </mxCell>
        <mxCell id="1SmDlZv5HPE9lzq-8RrA-22" value="Use" style="endArrow=open;endSize=12;dashed=1;html=1;rounded=0;entryX=0.5;entryY=0;entryDx=0;entryDy=0;exitX=0.487;exitY=1.077;exitDx=0;exitDy=0;exitPerimeter=0;" parent="WIyWlLk6GJQsqaUBKTNV-1" source="1SmDlZv5HPE9lzq-8RrA-12" target="1SmDlZv5HPE9lzq-8RrA-19" edge="1">
          <mxGeometry width="160" relative="1" as="geometry">
            <mxPoint x="175" y="220" as="sourcePoint" />
            <mxPoint x="155" y="267" as="targetPoint" />
          </mxGeometry>
        </mxCell>
        <mxCell id="1SmDlZv5HPE9lzq-8RrA-23" value="HttpCode" style="html=1;whiteSpace=wrap;" parent="WIyWlLk6GJQsqaUBKTNV-1" vertex="1">
          <mxGeometry x="205" y="384" width="110" height="50" as="geometry" />
        </mxCell>
        <mxCell id="1SmDlZv5HPE9lzq-8RrA-24" value="Use" style="endArrow=open;endSize=12;dashed=1;html=1;rounded=0;exitX=0.477;exitY=0.985;exitDx=0;exitDy=0;exitPerimeter=0;" parent="WIyWlLk6GJQsqaUBKTNV-1" source="1SmDlZv5HPE9lzq-8RrA-21" target="1SmDlZv5HPE9lzq-8RrA-23" edge="1">
          <mxGeometry width="160" relative="1" as="geometry">
            <mxPoint x="490" y="340" as="sourcePoint" />
            <mxPoint x="435" y="387" as="targetPoint" />
          </mxGeometry>
        </mxCell>
        <mxCell id="1SmDlZv5HPE9lzq-8RrA-25" value="Â«interfaceÂ»&lt;br&gt;&lt;b&gt;ICRUD&lt;/b&gt;" style="html=1;whiteSpace=wrap;" parent="WIyWlLk6GJQsqaUBKTNV-1" vertex="1">
          <mxGeometry x="580" y="120" width="110" height="50" as="geometry" />
        </mxCell>
        <mxCell id="1SmDlZv5HPE9lzq-8RrA-26" value="Extends" style="endArrow=block;endSize=16;endFill=0;html=1;rounded=0;exitX=0.5;exitY=0;exitDx=0;exitDy=0;entryX=0.5;entryY=1;entryDx=0;entryDy=0;" parent="WIyWlLk6GJQsqaUBKTNV-1" source="1SmDlZv5HPE9lzq-8RrA-37" target="1SmDlZv5HPE9lzq-8RrA-25" edge="1">
          <mxGeometry width="160" relative="1" as="geometry">
            <mxPoint x="533" y="240" as="sourcePoint" />
            <mxPoint x="485" y="290" as="targetPoint" />
            <Array as="points" />
          </mxGeometry>
        </mxCell>
        <mxCell id="1SmDlZv5HPE9lzq-8RrA-27" value="Use" style="endArrow=open;endSize=12;dashed=1;html=1;rounded=0;entryX=1;entryY=0.5;entryDx=0;entryDy=0;exitX=0;exitY=0.5;exitDx=0;exitDy=0;" parent="WIyWlLk6GJQsqaUBKTNV-1" source="1SmDlZv5HPE9lzq-8RrA-39" target="1SmDlZv5HPE9lzq-8RrA-20" edge="1">
          <mxGeometry width="160" relative="1" as="geometry">
            <mxPoint x="423" y="305" as="sourcePoint" />
            <mxPoint x="483" y="388" as="targetPoint" />
          </mxGeometry>
        </mxCell>
        <mxCell id="1SmDlZv5HPE9lzq-8RrA-28" value="Logger&lt;A&gt;" style="swimlane;fontStyle=2;align=center;verticalAlign=top;childLayout=stackLayout;horizontal=1;startSize=26;horizontalStack=0;resizeParent=1;resizeLast=0;collapsible=1;marginBottom=0;rounded=0;shadow=0;strokeWidth=1;" parent="WIyWlLk6GJQsqaUBKTNV-1" vertex="1">
          <mxGeometry x="362" y="80" width="130" height="104" as="geometry">
            <mxRectangle x="230" y="140" width="160" height="26" as="alternateBounds" />
          </mxGeometry>
        </mxCell>
        <mxCell id="1SmDlZv5HPE9lzq-8RrA-29" value="+ fecha: timestamp" style="text;strokeColor=none;fillColor=none;align=left;verticalAlign=top;spacingLeft=4;spacingRight=4;overflow=hidden;rotatable=0;points=[[0,0.5],[1,0.5]];portConstraint=eastwest;whiteSpace=wrap;html=1;" parent="1SmDlZv5HPE9lzq-8RrA-28" vertex="1">
          <mxGeometry y="26" width="130" height="26" as="geometry" />
        </mxCell>
        <mxCell id="1SmDlZv5HPE9lzq-8RrA-30" value="+ entity: A" style="text;strokeColor=none;fillColor=none;align=left;verticalAlign=top;spacingLeft=4;spacingRight=4;overflow=hidden;rotatable=0;points=[[0,0.5],[1,0.5]];portConstraint=eastwest;whiteSpace=wrap;html=1;" parent="1SmDlZv5HPE9lzq-8RrA-28" vertex="1">
          <mxGeometry y="52" width="130" height="26" as="geometry" />
        </mxCell>
        <mxCell id="1SmDlZv5HPE9lzq-8RrA-31" value="+ content: Object" style="text;strokeColor=none;fillColor=none;align=left;verticalAlign=top;spacingLeft=4;spacingRight=4;overflow=hidden;rotatable=0;points=[[0,0.5],[1,0.5]];portConstraint=eastwest;whiteSpace=wrap;html=1;" parent="1SmDlZv5HPE9lzq-8RrA-28" vertex="1">
          <mxGeometry y="78" width="130" height="26" as="geometry" />
        </mxCell>
        <mxCell id="1SmDlZv5HPE9lzq-8RrA-32" value="Extends" style="endArrow=block;endSize=16;endFill=0;html=1;rounded=0;exitX=0;exitY=0.5;exitDx=0;exitDy=0;" parent="WIyWlLk6GJQsqaUBKTNV-1" source="1SmDlZv5HPE9lzq-8RrA-30" edge="1">
          <mxGeometry width="160" relative="1" as="geometry">
            <mxPoint x="305" y="324" as="sourcePoint" />
            <mxPoint x="285" y="145" as="targetPoint" />
          </mxGeometry>
        </mxCell>
        <mxCell id="1SmDlZv5HPE9lzq-8RrA-37" value="Usuario" style="swimlane;fontStyle=2;align=center;verticalAlign=top;childLayout=stackLayout;horizontal=1;startSize=26;horizontalStack=0;resizeParent=1;resizeLast=0;collapsible=1;marginBottom=0;rounded=0;shadow=0;strokeWidth=1;" parent="WIyWlLk6GJQsqaUBKTNV-1" vertex="1">
          <mxGeometry x="440" y="231" width="200" height="110" as="geometry">
            <mxRectangle x="230" y="140" width="160" height="26" as="alternateBounds" />
          </mxGeometry>
        </mxCell>
        <mxCell id="1SmDlZv5HPE9lzq-8RrA-38" value="+ email: str" style="text;strokeColor=none;fillColor=none;align=left;verticalAlign=top;spacingLeft=4;spacingRight=4;overflow=hidden;rotatable=0;points=[[0,0.5],[1,0.5]];portConstraint=eastwest;whiteSpace=wrap;html=1;" parent="1SmDlZv5HPE9lzq-8RrA-37" vertex="1">
          <mxGeometry y="26" width="200" height="26" as="geometry" />
        </mxCell>
        <mxCell id="1SmDlZv5HPE9lzq-8RrA-39" value="+ pass: str" style="text;strokeColor=none;fillColor=none;align=left;verticalAlign=top;spacingLeft=4;spacingRight=4;overflow=hidden;rotatable=0;points=[[0,0.5],[1,0.5]];portConstraint=eastwest;whiteSpace=wrap;html=1;" parent="1SmDlZv5HPE9lzq-8RrA-37" vertex="1">
          <mxGeometry y="52" width="200" height="26" as="geometry" />
        </mxCell>
        <mxCell id="1SmDlZv5HPE9lzq-8RrA-43" value="" style="line;html=1;strokeWidth=1;align=left;verticalAlign=middle;spacingTop=-1;spacingLeft=3;spacingRight=3;rotatable=0;labelPosition=right;points=[];portConstraint=eastwest;" parent="1SmDlZv5HPE9lzq-8RrA-37" vertex="1">
          <mxGeometry y="78" width="200" height="8" as="geometry" />
        </mxCell>
        <mxCell id="1SmDlZv5HPE9lzq-8RrA-44" value="+ ingresoCajero(email, pass): Response" style="text;strokeColor=none;fillColor=none;align=left;verticalAlign=top;spacingLeft=4;spacingRight=4;overflow=hidden;rotatable=0;points=[[0,0.5],[1,0.5]];portConstraint=eastwest;whiteSpace=wrap;html=1;" parent="1SmDlZv5HPE9lzq-8RrA-37" vertex="1">
          <mxGeometry y="86" width="200" height="24" as="geometry" />
        </mxCell>
        <mxCell id="1SmDlZv5HPE9lzq-8RrA-51" value="200: OK&lt;div&gt;423 Locked&lt;br&gt;&lt;div&gt;404: Not Found&amp;nbsp;&lt;/div&gt;&lt;/div&gt;" style="html=1;whiteSpace=wrap;dashed=1;" parent="WIyWlLk6GJQsqaUBKTNV-1" vertex="1">
          <mxGeometry x="202.5" y="450" width="120" height="60" as="geometry" />
        </mxCell>
        <mxCell id="1SmDlZv5HPE9lzq-8RrA-52" value="ActualizarProductos&lt;Usuario&gt;" style="swimlane;fontStyle=2;align=center;verticalAlign=top;childLayout=stackLayout;horizontal=1;startSize=26;horizontalStack=0;resizeParent=1;resizeLast=0;collapsible=1;marginBottom=0;rounded=0;shadow=0;strokeWidth=1;" parent="WIyWlLk6GJQsqaUBKTNV-1" vertex="1">
          <mxGeometry x="724" y="445" width="210" height="158" as="geometry">
            <mxRectangle x="230" y="140" width="160" height="26" as="alternateBounds" />
          </mxGeometry>
        </mxCell>
        <mxCell id="1SmDlZv5HPE9lzq-8RrA-53" value="+ idProducto: str" style="text;strokeColor=none;fillColor=none;align=left;verticalAlign=top;spacingLeft=4;spacingRight=4;overflow=hidden;rotatable=0;points=[[0,0.5],[1,0.5]];portConstraint=eastwest;whiteSpace=wrap;html=1;" parent="1SmDlZv5HPE9lzq-8RrA-52" vertex="1">
          <mxGeometry y="26" width="210" height="26" as="geometry" />
        </mxCell>
        <mxCell id="1SmDlZv5HPE9lzq-8RrA-54" value="+ monto: int" style="text;strokeColor=none;fillColor=none;align=left;verticalAlign=top;spacingLeft=4;spacingRight=4;overflow=hidden;rotatable=0;points=[[0,0.5],[1,0.5]];portConstraint=eastwest;whiteSpace=wrap;html=1;" parent="1SmDlZv5HPE9lzq-8RrA-52" vertex="1">
          <mxGeometry y="52" width="210" height="28" as="geometry" />
        </mxCell>
        <mxCell id="1SmDlZv5HPE9lzq-8RrA-58" value="+ disponibilidad: bool" style="text;strokeColor=none;fillColor=none;align=left;verticalAlign=top;spacingLeft=4;spacingRight=4;overflow=hidden;rotatable=0;points=[[0,0.5],[1,0.5]];portConstraint=eastwest;whiteSpace=wrap;html=1;" parent="1SmDlZv5HPE9lzq-8RrA-52" vertex="1">
          <mxGeometry y="80" width="210" height="28" as="geometry" />
        </mxCell>
        <mxCell id="1SmDlZv5HPE9lzq-8RrA-55" value="" style="line;html=1;strokeWidth=1;align=left;verticalAlign=middle;spacingTop=-1;spacingLeft=3;spacingRight=3;rotatable=0;labelPosition=right;points=[];portConstraint=eastwest;" parent="1SmDlZv5HPE9lzq-8RrA-52" vertex="1">
          <mxGeometry y="108" width="210" height="8" as="geometry" />
        </mxCell>
        <mxCell id="1SmDlZv5HPE9lzq-8RrA-56" value="+ actualizarProducto(idPedido, monto, disponibilidad): Response" style="text;strokeColor=none;fillColor=none;align=left;verticalAlign=top;spacingLeft=4;spacingRight=4;overflow=hidden;rotatable=0;points=[[0,0.5],[1,0.5]];portConstraint=eastwest;whiteSpace=wrap;html=1;" parent="1SmDlZv5HPE9lzq-8RrA-52" vertex="1">
          <mxGeometry y="116" width="210" height="42" as="geometry" />
        </mxCell>
        <mxCell id="1SmDlZv5HPE9lzq-8RrA-59" value="HistorialProductos&lt;Usuario&gt;" style="swimlane;fontStyle=2;align=center;verticalAlign=top;childLayout=stackLayout;horizontal=1;startSize=26;horizontalStack=0;resizeParent=1;resizeLast=0;collapsible=1;marginBottom=0;rounded=0;shadow=0;strokeWidth=1;" parent="WIyWlLk6GJQsqaUBKTNV-1" vertex="1">
          <mxGeometry x="730" y="231" width="198" height="136" as="geometry">
            <mxRectangle x="230" y="140" width="160" height="26" as="alternateBounds" />
          </mxGeometry>
        </mxCell>
        <mxCell id="1SmDlZv5HPE9lzq-8RrA-60" value="+ idProducto: str" style="text;strokeColor=none;fillColor=none;align=left;verticalAlign=top;spacingLeft=4;spacingRight=4;overflow=hidden;rotatable=0;points=[[0,0.5],[1,0.5]];portConstraint=eastwest;whiteSpace=wrap;html=1;" parent="1SmDlZv5HPE9lzq-8RrA-59" vertex="1">
          <mxGeometry y="26" width="198" height="26" as="geometry" />
        </mxCell>
        <mxCell id="1SmDlZv5HPE9lzq-8RrA-64" value="+ Precio: int" style="text;strokeColor=none;fillColor=none;align=left;verticalAlign=top;spacingLeft=4;spacingRight=4;overflow=hidden;rotatable=0;points=[[0,0.5],[1,0.5]];portConstraint=eastwest;whiteSpace=wrap;html=1;" parent="1SmDlZv5HPE9lzq-8RrA-59" vertex="1">
          <mxGeometry y="52" width="198" height="28" as="geometry" />
        </mxCell>
        <mxCell id="1SmDlZv5HPE9lzq-8RrA-61" value="+ Disponibilidad: str" style="text;strokeColor=none;fillColor=none;align=left;verticalAlign=top;spacingLeft=4;spacingRight=4;overflow=hidden;rotatable=0;points=[[0,0.5],[1,0.5]];portConstraint=eastwest;whiteSpace=wrap;html=1;" parent="1SmDlZv5HPE9lzq-8RrA-59" vertex="1">
          <mxGeometry y="80" width="198" height="28" as="geometry" />
        </mxCell>
        <mxCell id="1SmDlZv5HPE9lzq-8RrA-65" value="+ Accion: str" style="text;strokeColor=none;fillColor=none;align=left;verticalAlign=top;spacingLeft=4;spacingRight=4;overflow=hidden;rotatable=0;points=[[0,0.5],[1,0.5]];portConstraint=eastwest;whiteSpace=wrap;html=1;" parent="1SmDlZv5HPE9lzq-8RrA-59" vertex="1">
          <mxGeometry y="108" width="198" height="28" as="geometry" />
        </mxCell>
        <mxCell id="1SmDlZv5HPE9lzq-8RrA-66" value="Extends" style="endArrow=block;endSize=16;endFill=0;html=1;rounded=0;exitX=0.5;exitY=0;exitDx=0;exitDy=0;" parent="WIyWlLk6GJQsqaUBKTNV-1" source="1SmDlZv5HPE9lzq-8RrA-59" edge="1">
          <mxGeometry width="160" relative="1" as="geometry">
            <mxPoint x="570" y="284" as="sourcePoint" />
            <mxPoint x="630" y="170" as="targetPoint" />
            <Array as="points" />
          </mxGeometry>
        </mxCell>
        <mxCell id="1SmDlZv5HPE9lzq-8RrA-67" value="Use" style="endArrow=open;endSize=12;dashed=1;html=1;rounded=0;entryX=1.023;entryY=0.831;entryDx=0;entryDy=0;exitX=0;exitY=0.5;exitDx=0;exitDy=0;entryPerimeter=0;" parent="WIyWlLk6GJQsqaUBKTNV-1" source="1SmDlZv5HPE9lzq-8RrA-54" target="1SmDlZv5HPE9lzq-8RrA-20" edge="1">
          <mxGeometry width="160" relative="1" as="geometry">
            <mxPoint x="475" y="290" as="sourcePoint" />
            <mxPoint x="370" y="290" as="targetPoint" />
            <Array as="points">
              <mxPoint x="360" y="510" />
              <mxPoint x="360" y="308" />
            </Array>
          </mxGeometry>
        </mxCell>
        <mxCell id="1SmDlZv5HPE9lzq-8RrA-68" value="Extends" style="endArrow=block;endSize=16;endFill=0;html=1;rounded=0;exitX=0.5;exitY=0;exitDx=0;exitDy=0;" parent="WIyWlLk6GJQsqaUBKTNV-1" source="1SmDlZv5HPE9lzq-8RrA-52" target="1SmDlZv5HPE9lzq-8RrA-65" edge="1">
          <mxGeometry width="160" relative="1" as="geometry">
            <mxPoint x="829" y="531" as="sourcePoint" />
            <mxPoint x="829" y="370" as="targetPoint" />
            <Array as="points" />
          </mxGeometry>
        </mxCell>
        <mxCell id="1SmDlZv5HPE9lzq-8RrA-69" value="ICRUDA&amp;lt;R&amp;gt;" style="swimlane;fontStyle=0;childLayout=stackLayout;horizontal=1;startSize=26;fillColor=none;horizontalStack=0;resizeParent=1;resizeParentMax=0;resizeLast=0;collapsible=1;marginBottom=0;whiteSpace=wrap;html=1;" parent="WIyWlLk6GJQsqaUBKTNV-1" vertex="1">
          <mxGeometry x="510" y="419" width="120" height="52" as="geometry" />
        </mxCell>
        <mxCell id="1SmDlZv5HPE9lzq-8RrA-70" value="+ entity: R" style="text;strokeColor=none;fillColor=none;align=left;verticalAlign=top;spacingLeft=4;spacingRight=4;overflow=hidden;rotatable=0;points=[[0,0.5],[1,0.5]];portConstraint=eastwest;whiteSpace=wrap;html=1;" parent="1SmDlZv5HPE9lzq-8RrA-69" vertex="1">
          <mxGeometry y="26" width="120" height="26" as="geometry" />
        </mxCell>
        <mxCell id="1SmDlZv5HPE9lzq-8RrA-71" value="" style="endArrow=block;dashed=1;endFill=0;endSize=12;html=1;rounded=0;fontSize=12;curved=1;entryX=1;entryY=0.5;entryDx=0;entryDy=0;" parent="WIyWlLk6GJQsqaUBKTNV-1" target="1SmDlZv5HPE9lzq-8RrA-69" edge="1">
          <mxGeometry width="160" relative="1" as="geometry">
            <mxPoint x="830" y="370" as="sourcePoint" />
            <mxPoint x="617" y="430" as="targetPoint" />
          </mxGeometry>
        </mxCell>
        <mxCell id="1SmDlZv5HPE9lzq-8RrA-72" value="" style="endArrow=block;dashed=1;endFill=0;endSize=12;html=1;rounded=0;fontSize=12;curved=1;exitX=0;exitY=0.5;exitDx=0;exitDy=0;entryX=1;entryY=0.5;entryDx=0;entryDy=0;" parent="WIyWlLk6GJQsqaUBKTNV-1" source="1SmDlZv5HPE9lzq-8RrA-54" target="1SmDlZv5HPE9lzq-8RrA-69" edge="1">
          <mxGeometry width="160" relative="1" as="geometry">
            <mxPoint x="865" y="470" as="sourcePoint" />
            <mxPoint x="620" y="440" as="targetPoint" />
          </mxGeometry>
        </mxCell>
        <mxCell id="JpLQMClertc4C632ztHQ-0" value="Use" style="endArrow=open;endSize=12;dashed=1;html=1;rounded=0;entryX=1;entryY=0.25;entryDx=0;entryDy=0;exitX=0.5;exitY=0;exitDx=0;exitDy=0;" edge="1" parent="WIyWlLk6GJQsqaUBKTNV-1" source="1SmDlZv5HPE9lzq-8RrA-59" target="1SmDlZv5HPE9lzq-8RrA-28">
          <mxGeometry width="160" relative="1" as="geometry">
            <mxPoint x="515" y="300" as="sourcePoint" />
            <mxPoint x="410" y="300" as="targetPoint" />
            <Array as="points">
              <mxPoint x="830" y="106" />
            </Array>
          </mxGeometry>
        </mxCell>
      </root>
    </mxGraphModel>
  </diagram>
</mxfile>
